<svg width="216" height="128" viewBox="0 0 216 128" fill="none" xmlns="http://www.w3.org/2000/svg">
<path d="M108.25 108.23C125.989 108.23 140.37 93.8494 140.37 76.11C140.37 58.3706 125.989 43.99 108.25 43.99C90.5106 43.99 76.13 58.3706 76.13 76.11C76.13 93.8494 90.5106 108.23 108.25 108.23Z" fill="#FAF4E1"/>
<path d="M215.62 75.79C202.839 59.5358 186.534 46.3957 167.934 37.3604C149.335 28.3251 128.928 23.6305 108.25 23.6305C87.5724 23.6305 67.1647 28.3251 48.5656 37.3604C29.9665 46.3957 13.6615 59.5358 0.880005 75.79L0.630005 76.11L0.880005 76.44C7.72713 85.1306 15.5973 92.9638 24.32 99.77L25.06 100.35C25.06 100.35 62.06 127.56 108.26 127.56C154.11 127.56 191.44 100.3 191.45 100.34L192.19 99.76C200.907 92.9545 208.774 85.1249 215.62 76.44L215.87 76.11L215.62 75.79Z" fill="#FAF4E1"/>
<path d="M176.27 15.67C180.456 15.67 183.85 12.2763 183.85 8.09001C183.85 3.90369 180.456 0.51001 176.27 0.51001C172.084 0.51001 168.69 3.90369 168.69 8.09001C168.69 12.2763 172.084 15.67 176.27 15.67Z" fill="#FAF4E1"/>
</svg>
