<svg width="513" height="125" viewBox="0 0 513 125" fill="none" xmlns="http://www.w3.org/2000/svg">
<path d="M406.17 118.5C423.909 118.5 438.29 104.119 438.29 86.38C438.29 68.6406 423.909 54.26 406.17 54.26C388.431 54.26 374.05 68.6406 374.05 86.38C374.05 104.119 388.431 118.5 406.17 118.5Z" fill="#FAF4E1"/>
<path d="M511.85 67.42C496.441 53.63 478.102 43.5189 458.216 37.8492C438.329 32.1796 417.416 31.0995 397.051 34.6903C376.687 38.2811 357.403 46.4492 340.656 58.5784C323.908 70.7076 310.133 86.4814 300.37 104.71L300.18 105.07L300.49 105.34C308.741 112.712 317.85 119.065 327.62 124.26L328.45 124.7C328.45 124.64 324.45 48.56 397.24 35.7C469.86 22.89 492.29 95.7 492.31 95.77L492.93 95.08C500.325 86.876 506.704 77.8106 511.93 68.08L512.12 67.71L511.85 67.42Z" fill="#FAF4E1"/>
<path d="M461.34 15.16C465.526 15.16 468.92 11.7663 468.92 7.58C468.92 3.39368 465.526 0 461.34 0C457.154 0 453.76 3.39368 453.76 7.58C453.76 11.7663 457.154 15.16 461.34 15.16Z" fill="#D6A334"/>
<path d="M105.99 118.5C123.729 118.5 138.11 104.119 138.11 86.3799C138.11 68.6406 123.729 54.2599 105.99 54.2599C88.2506 54.2599 73.87 68.6406 73.87 86.3799C73.87 104.119 88.2506 118.5 105.99 118.5Z" fill="#FAF4E1"/>
<path d="M211.78 104.71C202.015 86.4845 188.24 70.7138 171.493 58.5869C154.746 46.4599 135.465 38.2933 115.102 34.7026C94.7397 31.112 73.8278 32.191 53.943 37.8584C34.0583 43.5259 15.7198 53.6337 0.31 67.42L0 67.69L0.19 68.06C5.41557 77.806 11.7947 86.8879 19.19 95.11L19.81 95.8C19.81 95.8 42.1 22.88 114.92 35.72C187.55 48.53 183.71 124.65 183.71 124.72L184.54 124.28C194.308 119.091 203.414 112.741 211.66 105.37L211.97 105.1L211.78 104.71Z" fill="#FAF4E1"/>
</svg>
