<svg width="300" height="167" viewBox="0 0 300 167" fill="none" xmlns="http://www.w3.org/2000/svg">
<path d="M280 166.81C279.456 166.812 278.923 166.652 278.469 166.351C278.016 166.05 277.662 165.622 277.452 165.119C277.243 164.617 277.187 164.064 277.292 163.53C277.397 162.996 277.658 162.505 278.042 162.119C278.426 161.733 278.916 161.471 279.45 161.364C279.984 161.257 280.537 161.311 281.04 161.518C281.543 161.726 281.973 162.079 282.276 162.531C282.578 162.984 282.74 163.516 282.74 164.06C282.74 164.788 282.452 165.486 281.938 166.001C281.425 166.516 280.728 166.807 280 166.81ZM279.34 159.2C277.156 159.242 275.005 158.671 273.13 157.55C271.354 156.451 269.923 154.874 269 153C268.051 150.917 267.559 148.654 267.559 146.365C267.559 144.076 268.051 141.813 269 139.73C269.905 137.848 271.327 136.263 273.1 135.16C274.973 134.035 277.126 133.463 279.31 133.51C282.03 133.377 284.702 134.257 286.81 135.98C288.669 137.636 289.875 139.903 290.21 142.37H285.47C285.189 140.976 284.45 139.715 283.37 138.79C282.223 137.866 280.782 137.383 279.31 137.43C277.941 137.386 276.593 137.786 275.47 138.57C274.402 139.379 273.587 140.475 273.12 141.73C272.08 144.732 272.08 147.998 273.12 151C273.587 152.255 274.402 153.351 275.47 154.16C276.596 154.94 277.941 155.339 279.31 155.3C280.811 155.348 282.277 154.843 283.43 153.88C284.516 152.909 285.239 151.597 285.48 150.16H290.22C289.893 152.685 288.655 155.003 286.74 156.68C284.655 158.407 282.006 159.304 279.3 159.2H279.34ZM250.21 159.2C248.52 159.257 246.849 158.834 245.39 157.98C244.114 157.187 243.104 156.031 242.49 154.66C241.821 153.177 241.48 151.567 241.49 149.94V134.06H246.08V149.41C246 150.922 246.488 152.41 247.45 153.58C247.972 154.12 248.606 154.539 249.308 154.809C250.009 155.078 250.76 155.191 251.51 155.14C252.498 155.123 253.475 154.923 254.39 154.55C255.486 154.078 256.408 153.278 257.03 152.26C257.838 150.878 258.224 149.289 258.14 147.69V134.06H262.78V158.62H258.33V154.7L257.97 155.2C257.113 156.407 255.996 157.405 254.7 158.12C253.308 158.863 251.748 159.234 250.17 159.2H250.21ZM182.77 159.2C180.45 159.325 178.157 158.655 176.27 157.3C175.481 156.66 174.854 155.843 174.44 154.915C174.027 153.987 173.838 152.975 173.89 151.96C173.847 150.692 174.197 149.442 174.89 148.38C175.659 147.313 176.693 146.465 177.89 145.92C179.508 145.194 181.212 144.676 182.96 144.38L190.65 142.96V141.16C190.693 140.592 190.597 140.022 190.371 139.499C190.144 138.977 189.794 138.517 189.35 138.16C188.178 137.462 186.821 137.138 185.46 137.23C184.008 137.175 182.568 137.521 181.3 138.23C180.753 138.583 180.3 139.065 179.981 139.633C179.662 140.201 179.486 140.839 179.47 141.49H174.87C174.84 140.321 175.098 139.162 175.621 138.116C176.145 137.07 176.917 136.168 177.87 135.49C180.127 134.069 182.765 133.371 185.43 133.49C188.67 133.49 191.13 134.12 192.75 135.37C193.548 135.987 194.184 136.787 194.606 137.703C195.027 138.619 195.221 139.623 195.17 140.63V158.63H190.82V155.28L190.46 155.73C189.571 156.888 188.4 157.8 187.06 158.38C185.686 158.939 184.214 159.217 182.73 159.2H182.77ZM183.77 147.73C182.419 147.944 181.118 148.401 179.93 149.08C179.503 149.39 179.162 149.805 178.942 150.285C178.721 150.765 178.627 151.294 178.67 151.82C178.646 152.345 178.743 152.868 178.955 153.348C179.166 153.829 179.487 154.254 179.89 154.59C180.953 155.322 182.232 155.674 183.52 155.59C184.711 155.594 185.891 155.359 186.99 154.9C188.071 154.456 188.999 153.705 189.66 152.74C190.368 151.643 190.717 150.354 190.66 149.05V146.31L183.77 147.73ZM161 159.2C158.249 159.35 155.524 158.606 153.23 157.08C152.288 156.338 151.525 155.394 150.997 154.317C150.469 153.241 150.19 152.059 150.18 150.86H154.73C154.769 151.566 154.954 152.256 155.275 152.886C155.595 153.516 156.043 154.073 156.59 154.52C157.888 155.227 159.335 155.617 160.812 155.657C162.29 155.697 163.756 155.386 165.09 154.75C165.561 154.488 165.953 154.103 166.224 153.637C166.495 153.17 166.635 152.639 166.63 152.1C166.654 151.468 166.501 150.841 166.19 150.29C165.731 149.704 165.097 149.281 164.38 149.08C163.076 148.657 161.738 148.349 160.38 148.16C158.363 147.879 156.394 147.32 154.53 146.5C153.34 145.993 152.327 145.144 151.62 144.06C151.05 142.991 150.771 141.791 150.81 140.58C150.78 139.572 151.003 138.572 151.457 137.671C151.911 136.77 152.582 135.996 153.41 135.42C155.442 134.057 157.856 133.381 160.3 133.49C163.6 133.49 166.18 134.21 167.98 135.65C168.841 136.347 169.533 137.23 170.004 138.233C170.475 139.236 170.713 140.332 170.7 141.44H166.26C166.284 140.779 166.144 140.123 165.853 139.53C165.562 138.936 165.128 138.425 164.59 138.04C163.282 137.312 161.795 136.965 160.3 137.04C159.072 136.997 157.856 137.298 156.79 137.91C156.342 138.166 155.972 138.538 155.719 138.987C155.465 139.436 155.338 139.945 155.35 140.46C155.321 141.118 155.522 141.765 155.92 142.29C156.452 142.845 157.121 143.248 157.86 143.46C159.169 143.858 160.506 144.155 161.86 144.35C163.824 144.629 165.744 145.164 167.57 145.94C168.729 146.434 169.717 147.258 170.41 148.31C171.003 149.389 171.293 150.609 171.25 151.84C171.279 152.906 171.035 153.961 170.541 154.906C170.048 155.851 169.321 156.655 168.43 157.24C166.21 158.634 163.618 159.317 161 159.2ZM83.68 159.2C81.4902 159.241 79.3325 158.669 77.45 157.55C75.6595 156.462 74.2191 154.883 73.3 153C72.3507 150.917 71.8594 148.654 71.8594 146.365C71.8594 144.076 72.3507 141.813 73.3 139.73C74.2048 137.839 75.6396 136.251 77.43 135.16C79.3284 134.079 81.4754 133.511 83.66 133.511C85.8446 133.511 87.9916 134.079 89.89 135.16C91.6773 136.262 93.1054 137.86 94 139.76C94.995 141.894 95.4909 144.226 95.45 146.58V147.82H76.57V148.05C76.7022 149.39 77.0856 150.692 77.7 151.89C78.2537 152.947 79.0829 153.835 80.1 154.46C81.1716 155.09 82.3974 155.408 83.64 155.38C85.0675 155.416 86.4757 155.045 87.7 154.31C88.8129 153.616 89.6856 152.597 90.2 151.39H94.83C94.1061 153.638 92.6926 155.601 90.79 157C88.7135 158.485 86.212 159.256 83.66 159.2H83.68ZM83.68 137.31C82.8179 137.279 81.9585 137.423 81.154 137.734C80.3494 138.045 79.6166 138.517 79 139.12C77.7394 140.466 76.9316 142.172 76.69 144V144.23H90.69V144C90.4721 142.166 89.6691 140.451 88.4 139.11C87.7759 138.5 87.033 138.026 86.2174 137.716C85.4019 137.407 84.5314 137.268 83.66 137.31H83.68ZM294.45 158.62V134.06H299.09V158.62H294.45ZM232.21 158.62L231 150.11C230.906 148.961 230.565 147.845 230 146.84C229.501 146.023 228.765 145.377 227.89 144.99C226.859 144.573 225.752 144.375 224.64 144.41H215.23V158.62H210.3V124.46H224.93C228.93 124.46 231.93 125.34 233.87 127.08C234.873 127.987 235.662 129.105 236.181 130.353C236.7 131.602 236.935 132.95 236.87 134.3C236.876 135.927 236.411 137.522 235.53 138.89C234.553 140.379 233.197 141.581 231.6 142.37L231.21 142.58L231.62 142.74C232.766 143.162 233.761 143.913 234.48 144.9C235.219 145.985 235.691 147.228 235.86 148.53L237.36 158.62H232.21ZM215.21 140.3H224.53C226.445 140.445 228.35 139.91 229.91 138.79C231.049 137.647 231.688 136.099 231.688 134.485C231.688 132.871 231.049 131.323 229.91 130.18C228.35 129.06 226.445 128.525 224.53 128.67H215.21V140.3ZM141.59 158.62V134.06H146.23V158.62H141.59ZM131.32 158.62V143.27C131.388 141.792 130.951 140.336 130.08 139.14C129.643 138.61 129.088 138.191 128.459 137.914C127.83 137.638 127.146 137.513 126.46 137.55C124.925 137.57 123.448 138.141 122.3 139.16C121.01 140.23 120.36 142.16 120.36 145V158.62H115.72V143.27C115.788 141.792 115.351 140.336 114.48 139.14C114.044 138.61 113.488 138.19 112.86 137.913C112.231 137.637 111.546 137.513 110.86 137.55C109.325 137.57 107.848 138.141 106.7 139.16C105.41 140.23 104.76 142.16 104.76 145V158.62H100.12V134.06H104.57V138.14L104.94 137.52C105.65 136.29 106.658 135.259 107.87 134.52C109.193 133.776 110.693 133.406 112.21 133.45C113.784 133.401 115.335 133.83 116.66 134.68C117.898 135.547 118.871 136.742 119.47 138.13L119.63 138.49L119.82 138.15C120.596 136.748 121.714 135.565 123.07 134.71C124.497 133.846 126.142 133.409 127.81 133.45C129.334 133.396 130.838 133.805 132.125 134.622C133.412 135.44 134.421 136.628 135.02 138.03C135.655 139.504 135.975 141.095 135.96 142.7V158.58L131.32 158.62ZM63.78 158.62C62.5881 158.662 61.3994 158.472 60.28 158.06C59.4223 157.714 58.7141 157.077 58.28 156.26C57.7699 155.187 57.5296 154.007 57.58 152.82V137.82H53.09V134.09H57.55V126.41H62.19V134.09H68.72V137.82H62.19V152.28C62.1621 152.64 62.2061 153.003 62.3194 153.346C62.4327 153.69 62.613 154.007 62.85 154.28C63.4124 154.737 64.1265 154.966 64.85 154.92H68.68V158.64L63.78 158.62ZM36.78 158.62V134.06H41.23V138.06L41.61 138.15C42.2997 136.72 43.409 135.534 44.79 134.75C46.1444 134.068 47.6439 133.725 49.16 133.75H50.88V138.1H49C47.6293 138.06 46.2658 138.313 45 138.84C43.8502 139.354 42.9114 140.247 42.34 141.37C41.6257 142.831 41.2823 144.445 41.34 146.07V158.59L36.78 158.62ZM27.78 158.62L24.37 149.74H8.59L5.14 158.62H0L13.57 124.46H19.35L33 158.62H27.78ZM10.17 145.49H22.75L16.46 129L10.17 145.49ZM296.75 129.65C296.206 129.652 295.673 129.492 295.219 129.191C294.766 128.89 294.412 128.462 294.202 127.959C293.993 127.457 293.937 126.904 294.042 126.37C294.147 125.836 294.408 125.345 294.792 124.959C295.176 124.573 295.666 124.311 296.2 124.204C296.734 124.097 297.287 124.151 297.79 124.358C298.293 124.566 298.723 124.919 299.026 125.371C299.328 125.824 299.49 126.356 299.49 126.9C299.49 127.628 299.202 128.326 298.688 128.841C298.175 129.356 297.478 129.647 296.75 129.65ZM143.96 129.65C143.416 129.652 142.883 129.492 142.429 129.191C141.976 128.89 141.622 128.462 141.412 127.959C141.203 127.457 141.147 126.904 141.252 126.37C141.357 125.836 141.618 125.345 142.002 124.959C142.386 124.573 142.876 124.311 143.41 124.204C143.944 124.097 144.497 124.151 145 124.358C145.503 124.566 145.933 124.919 146.236 125.371C146.538 125.824 146.7 126.356 146.7 126.9C146.7 127.621 146.417 128.313 145.912 128.827C145.407 129.341 144.721 129.637 144 129.65H143.96Z" fill="#FAF4E1"/>
<path d="M149.7 90.08C164.534 90.08 176.56 78.0544 176.56 63.22C176.56 48.3856 164.534 36.36 149.7 36.36C134.866 36.36 122.84 48.3856 122.84 63.22C122.84 78.0544 134.866 90.08 149.7 90.08Z" fill="#FAF4E1"/>
<path d="M239.48 63C228.794 49.4065 215.161 38.417 199.608 30.8605C184.056 23.3039 166.991 19.3776 149.7 19.3776C132.409 19.3776 115.344 23.3039 99.7917 30.8605C84.2394 38.417 70.6061 49.4065 59.92 63L59.7 63.27L59.92 63.54C65.6473 70.791 72.2282 77.3248 79.52 83L80.14 83.48C80.14 83.48 87.87 20.2 149.7 20.2C211.37 20.2 219.27 83.45 219.27 83.48L219.89 83C227.182 77.3095 233.76 70.7587 239.48 63.49L239.7 63.22L239.48 63Z" fill="#FAF4E1"/>
<path d="M206.58 12.68C210.081 12.68 212.92 9.84149 212.92 6.34C212.92 2.83851 210.081 0 206.58 0C203.079 0 200.24 2.83851 200.24 6.34C200.24 9.84149 203.079 12.68 206.58 12.68Z" fill="#D6A334"/>
</svg>
